<mxfile host="65bd71144e">
    <diagram id="3W8fqrKKjI1zhyHJpmCe" name="Page-1">
        <mxGraphModel dx="597" dy="329" grid="1" gridSize="10" guides="1" tooltips="1" connect="1" arrows="1" fold="1" page="1" pageScale="1" pageWidth="850" pageHeight="1100" math="0" shadow="0">
            <root>
                <mxCell id="0"/>
                <mxCell id="1" parent="0"/>
                <mxCell id="2" value="5" style="whiteSpace=wrap;html=1;" vertex="1" parent="1">
                    <mxGeometry x="225" y="490" width="80" height="60" as="geometry"/>
                </mxCell>
                <mxCell id="3" value="2" style="whiteSpace=wrap;html=1;" vertex="1" parent="1">
                    <mxGeometry x="305" y="490" width="80" height="60" as="geometry"/>
                </mxCell>
                <mxCell id="4" value="7" style="whiteSpace=wrap;html=1;" vertex="1" parent="1">
                    <mxGeometry x="385" y="490" width="80" height="60" as="geometry"/>
                </mxCell>
                <mxCell id="5" value="8" style="whiteSpace=wrap;html=1;" vertex="1" parent="1">
                    <mxGeometry x="465" y="490" width="80" height="60" as="geometry"/>
                </mxCell>
                <mxCell id="6" value="3" style="whiteSpace=wrap;html=1;" vertex="1" parent="1">
                    <mxGeometry x="545" y="490" width="80" height="60" as="geometry"/>
                </mxCell>
                <mxCell id="7" value="0" style="text;html=1;align=center;verticalAlign=middle;resizable=0;points=[];autosize=1;strokeColor=none;fillColor=none;" vertex="1" parent="1">
                    <mxGeometry x="250" y="465" width="30" height="30" as="geometry"/>
                </mxCell>
                <mxCell id="8" value="1" style="text;html=1;align=center;verticalAlign=middle;resizable=0;points=[];autosize=1;strokeColor=none;fillColor=none;" vertex="1" parent="1">
                    <mxGeometry x="330" y="465" width="30" height="30" as="geometry"/>
                </mxCell>
                <mxCell id="9" value="2" style="text;html=1;align=center;verticalAlign=middle;resizable=0;points=[];autosize=1;strokeColor=none;fillColor=none;" vertex="1" parent="1">
                    <mxGeometry x="410" y="465" width="30" height="30" as="geometry"/>
                </mxCell>
                <mxCell id="10" value="3" style="text;html=1;align=center;verticalAlign=middle;resizable=0;points=[];autosize=1;strokeColor=none;fillColor=none;" vertex="1" parent="1">
                    <mxGeometry x="490" y="465" width="30" height="30" as="geometry"/>
                </mxCell>
                <mxCell id="11" value="4" style="text;html=1;align=center;verticalAlign=middle;resizable=0;points=[];autosize=1;strokeColor=none;fillColor=none;" vertex="1" parent="1">
                    <mxGeometry x="570" y="465" width="30" height="30" as="geometry"/>
                </mxCell>
                <mxCell id="15" style="edgeStyle=none;html=1;entryX=0.5;entryY=1;entryDx=0;entryDy=0;exitX=1;exitY=0.5;exitDx=0;exitDy=0;" edge="1" parent="1" source="12" target="13">
                    <mxGeometry relative="1" as="geometry">
                        <Array as="points">
                            <mxPoint x="650" y="610"/>
                        </Array>
                    </mxGeometry>
                </mxCell>
                <mxCell id="16" value="push" style="edgeLabel;html=1;align=center;verticalAlign=middle;resizable=0;points=[];" vertex="1" connectable="0" parent="15">
                    <mxGeometry x="0.1627" relative="1" as="geometry">
                        <mxPoint as="offset"/>
                    </mxGeometry>
                </mxCell>
                <mxCell id="18" style="edgeStyle=none;html=1;entryX=0.5;entryY=1;entryDx=0;entryDy=0;exitX=0;exitY=0.5;exitDx=0;exitDy=0;" edge="1" parent="1" source="12" target="17">
                    <mxGeometry relative="1" as="geometry">
                        <Array as="points">
                            <mxPoint x="250" y="610"/>
                        </Array>
                    </mxGeometry>
                </mxCell>
                <mxCell id="19" value="unshift" style="edgeLabel;html=1;align=center;verticalAlign=middle;resizable=0;points=[];" vertex="1" connectable="0" parent="18">
                    <mxGeometry x="0.3777" y="3" relative="1" as="geometry">
                        <mxPoint x="9" y="1" as="offset"/>
                    </mxGeometry>
                </mxCell>
                <mxCell id="12" value="9" style="whiteSpace=wrap;html=1;" vertex="1" parent="1">
                    <mxGeometry x="400" y="600" width="80" height="60" as="geometry"/>
                </mxCell>
                <mxCell id="13" value="9" style="whiteSpace=wrap;html=1;dashed=1;" vertex="1" parent="1">
                    <mxGeometry x="640" y="490" width="80" height="60" as="geometry"/>
                </mxCell>
                <mxCell id="14" value="5" style="text;html=1;align=center;verticalAlign=middle;resizable=0;points=[];autosize=1;strokeColor=none;fillColor=none;" vertex="1" parent="1">
                    <mxGeometry x="665" y="465" width="30" height="30" as="geometry"/>
                </mxCell>
                <mxCell id="17" value="9" style="whiteSpace=wrap;html=1;dashed=1;" vertex="1" parent="1">
                    <mxGeometry x="130" y="490" width="80" height="60" as="geometry"/>
                </mxCell>
            </root>
        </mxGraphModel>
    </diagram>
</mxfile>